<svg height="400" width="400">
<rect x="0" y="0" width="100" height="100" style="fill:rgb(0,255,255);stroke-width:3;stroke:rgb(0,0,0)"/>
<rect x="100" y="0" width="100" height="50" style="fill:rgb(0,255,255);stroke-width:3;stroke:rgb(0,0,0)"/>
<rect x="100" y="50" width="50" height="50" style="fill:rgb(0,129,0);stroke-width:3;stroke:rgb(0,0,0)"/>
<rect x="150" y="50" width="50" height="50" style="fill:rgb(0,194,0);stroke-width:3;stroke:rgb(0,0,0)"/>
<rect x="0" y="100" width="50" height="50" style="fill:rgb(0,255,255);stroke-width:3;stroke:rgb(0,0,0)"/>
<rect x="50" y="100" width="50" height="50" style="fill:rgb(0,129,0);stroke-width:3;stroke:rgb(0,0,0)"/>
<rect x="0" y="150" width="50" height="50" style="fill:rgb(0,255,255);stroke-width:3;stroke:rgb(0,0,0)"/>
<rect x="50" y="150" width="50" height="50" style="fill:rgb(0,129,0);stroke-width:3;stroke:rgb(0,0,0)"/>
<rect x="100" y="100" width="50" height="50" style="fill:rgb(0,129,0);stroke-width:3;stroke:rgb(0,0,0)"/>
<rect x="150" y="100" width="50" height="50" style="fill:rgb(0,166,0);stroke-width:3;stroke:rgb(0,0,0)"/>
<rect x="100" y="150" width="100" height="50" style="fill:rgb(0,166,0);stroke-width:3;stroke:rgb(0,0,0)"/>
<rect x="200" y="0" width="100" height="50" style="fill:rgb(0,255,255);stroke-width:3;stroke:rgb(0,0,0)"/>
<rect x="200" y="50" width="100" height="50" style="fill:rgb(0,194,0);stroke-width:3;stroke:rgb(0,0,0)"/>
<rect x="300" y="0" width="100" height="100" style="fill:rgb(0,255,255);stroke-width:3;stroke:rgb(0,0,0)"/>
<rect x="200" y="100" width="50" height="50" style="fill:rgb(0,166,0);stroke-width:3;stroke:rgb(0,0,0)"/>
<rect x="250" y="100" width="50" height="50" style="fill:rgb(0,194,0);stroke-width:3;stroke:rgb(0,0,0)"/>
<rect x="200" y="150" width="100" height="50" style="fill:rgb(0,166,0);stroke-width:3;stroke:rgb(0,0,0)"/>
<rect x="300" y="100" width="50" height="50" style="fill:rgb(0,194,0);stroke-width:3;stroke:rgb(0,0,0)"/>
<rect x="350" y="100" width="50" height="50" style="fill:rgb(0,255,255);stroke-width:3;stroke:rgb(0,0,0)"/>
<rect x="300" y="150" width="50" height="50" style="fill:rgb(0,194,0);stroke-width:3;stroke:rgb(0,0,0)"/>
<rect x="350" y="150" width="50" height="50" style="fill:rgb(0,255,255);stroke-width:3;stroke:rgb(0,0,0)"/>
<rect x="0" y="200" width="100" height="100" style="fill:rgb(170,212,0);stroke-width:3;stroke:rgb(0,0,0)"/>
<rect x="100" y="200" width="50" height="50" style="fill:rgb(0,129,0);stroke-width:3;stroke:rgb(0,0,0)"/>
<rect x="150" y="200" width="50" height="50" style="fill:rgb(0,166,0);stroke-width:3;stroke:rgb(0,0,0)"/>
<rect x="100" y="250" width="50" height="50" style="fill:rgb(170,212,0);stroke-width:3;stroke:rgb(0,0,0)"/>
<rect x="150" y="250" width="50" height="50" style="fill:rgb(170,83,0);stroke-width:3;stroke:rgb(0,0,0)"/>
<rect x="0" y="300" width="100" height="100" style="fill:rgb(170,212,0);stroke-width:3;stroke:rgb(0,0,0)"/>
<rect x="100" y="300" width="50" height="50" style="fill:rgb(170,212,0);stroke-width:3;stroke:rgb(0,0,0)"/>
<rect x="150" y="300" width="50" height="50" style="fill:rgb(170,83,0);stroke-width:3;stroke:rgb(0,0,0)"/>
<rect x="100" y="350" width="100" height="50" style="fill:rgb(170,212,0);stroke-width:3;stroke:rgb(0,0,0)"/>
<rect x="200" y="200" width="50" height="50" style="fill:rgb(0,166,0);stroke-width:3;stroke:rgb(0,0,0)"/>
<rect x="250" y="200" width="50" height="50" style="fill:rgb(0,194,0);stroke-width:3;stroke:rgb(0,0,0)"/>
<rect x="200" y="250" width="50" height="50" style="fill:rgb(170,136,0);stroke-width:3;stroke:rgb(0,0,0)"/>
<rect x="250" y="250" width="50" height="50" style="fill:rgb(170,212,0);stroke-width:3;stroke:rgb(0,0,0)"/>
<rect x="300" y="200" width="100" height="100" style="fill:rgb(170,212,0);stroke-width:3;stroke:rgb(0,0,0)"/>
<rect x="200" y="300" width="50" height="50" style="fill:rgb(170,136,0);stroke-width:3;stroke:rgb(0,0,0)"/>
<rect x="250" y="300" width="50" height="50" style="fill:rgb(170,212,0);stroke-width:3;stroke:rgb(0,0,0)"/>
<rect x="200" y="350" width="100" height="50" style="fill:rgb(170,212,0);stroke-width:3;stroke:rgb(0,0,0)"/>
<rect x="300" y="300" width="100" height="100" style="fill:rgb(170,212,0);stroke-width:3;stroke:rgb(0,0,0)"/>
</svg>